<svg width="198" height="35" viewBox="0 0 198 35" fill="none" xmlns="http://www.w3.org/2000/svg">
<path d="M0.24 2.8H13.596L13.164 5.86H3.696V13.924H11.832L11.4 16.948H3.696V28H0.24V2.8ZM23.6645 8.668C25.7285 8.668 27.2525 9.292 28.2365 10.54C29.0525 11.548 29.5565 13.24 29.7485 15.616C29.8205 16.552 29.8565 17.716 29.8565 19.108L28.3805 19.324H19.0565C19.0565 22.348 19.8605 24.256 21.4685 25.048C22.1405 25.384 23.0645 25.552 24.2405 25.552C25.4165 25.552 26.7725 25.168 28.3085 24.4L29.3165 26.632C27.3245 27.832 25.3205 28.432 23.3045 28.432C18.1685 28.432 15.6005 25.192 15.6005 18.712C15.6005 15.64 16.2725 13.204 17.6165 11.404C18.9845 9.58 21.0005 8.668 23.6645 8.668ZM26.4005 16.768C26.4005 14.848 26.2085 13.504 25.8245 12.736C25.4405 11.944 24.5525 11.548 23.1605 11.548C21.7925 11.548 20.8205 12.016 20.2445 12.952C19.6685 13.864 19.3085 15.136 19.1645 16.768H26.4005ZM37.1805 22.24C37.1805 23.416 37.2765 24.316 37.4685 24.94C37.6605 25.54 38.0925 26.188 38.7645 26.884L36.3525 28.792C35.3685 27.76 34.7205 26.884 34.4085 26.164C34.0965 25.444 33.9405 24.22 33.9405 22.492V1.18L37.1805 0.819998V22.24ZM46.2567 28H43.0167V9.28L46.2567 8.92V28ZM44.4927 7.876C43.0287 7.876 42.2967 7.06 42.2967 5.428C42.2967 4.828 42.4887 4.312 42.8727 3.88C43.2807 3.448 43.9047 3.232 44.7447 3.232C46.2087 3.232 46.9407 4.048 46.9407 5.68C46.9407 6.28 46.7367 6.796 46.3287 7.228C45.9447 7.66 45.3327 7.876 44.4927 7.876ZM54.8607 11.116C56.2287 9.484 57.9567 8.668 60.0447 8.668C62.1327 8.668 63.7527 9.412 64.9047 10.9C66.0807 12.364 66.6687 14.92 66.6687 18.568C66.6687 20.416 66.4167 22.024 65.9127 23.392C65.4327 24.736 64.7967 25.756 64.0047 26.452C62.4927 27.772 60.8607 28.432 59.1087 28.432C57.3567 28.432 56.0727 28.048 55.2567 27.28L55.1487 27.316L55.2567 28.216V34.624L52.0167 34.984V14.284L51.7287 9.28L54.3567 8.92L54.7167 11.116H54.8607ZM55.2567 24.616C56.2887 25.24 57.4887 25.552 58.8567 25.552C60.2247 25.552 61.2927 25.048 62.0607 24.04C62.8287 23.008 63.2127 21.112 63.2127 18.352C63.2127 15.016 62.5887 12.928 61.3407 12.088C60.8127 11.728 60.1647 11.548 59.3967 11.548C57.5727 11.548 56.1927 12.148 55.2567 13.348V24.616ZM77.9809 8.668C80.0449 8.668 81.5689 9.292 82.5529 10.54C83.3689 11.548 83.8729 13.24 84.0649 15.616C84.1369 16.552 84.1729 17.716 84.1729 19.108L82.6969 19.324H73.3729C73.3729 22.348 74.1769 24.256 75.7849 25.048C76.4569 25.384 77.3809 25.552 78.5569 25.552C79.7329 25.552 81.0889 25.168 82.6249 24.4L83.6329 26.632C81.6409 27.832 79.6369 28.432 77.6209 28.432C72.4849 28.432 69.9169 25.192 69.9169 18.712C69.9169 15.64 70.5889 13.204 71.9329 11.404C73.3009 9.58 75.3169 8.668 77.9809 8.668ZM80.7169 16.768C80.7169 14.848 80.5249 13.504 80.1409 12.736C79.7569 11.944 78.8689 11.548 77.4769 11.548C76.1089 11.548 75.1369 12.016 74.5609 12.952C73.9849 13.864 73.6249 15.136 73.4809 16.768H80.7169ZM108.42 7.336C107.988 6.784 107.388 6.34 106.62 6.004C105.852 5.644 104.916 5.464 103.812 5.464C102.732 5.464 101.808 5.74 101.04 6.292C100.296 6.82 99.7437 7.6 99.3837 8.632C98.7837 10.384 98.4837 12.736 98.4837 15.688C98.4837 19.528 99.0237 22.12 100.104 23.464C101.088 24.712 102.6 25.336 104.64 25.336C105.6 25.336 106.416 25.144 107.088 24.76C107.784 24.352 108.312 23.86 108.672 23.284C109.056 22.684 109.356 21.904 109.572 20.944C109.908 19.456 110.076 17.812 110.076 16.012C110.076 14.212 110.04 12.892 109.968 12.052C109.896 11.188 109.728 10.324 109.464 9.46C109.224 8.572 108.876 7.864 108.42 7.336ZM104.676 2.368C110.724 2.368 113.748 6.532 113.748 14.86C113.748 19.156 112.92 22.492 111.264 24.868C109.608 27.244 107.148 28.432 103.884 28.432C97.8357 28.432 94.8117 24.268 94.8117 15.94C94.8117 11.644 95.6397 8.308 97.2957 5.932C98.9517 3.556 101.412 2.368 104.676 2.368ZM126.095 8.668C126.719 8.668 127.187 8.728 127.499 8.848C127.835 8.944 128.111 9.028 128.327 9.1C128.543 9.148 128.675 9.184 128.723 9.208L128.147 12.448C127.427 12.208 126.563 12.088 125.555 12.088C124.571 12.088 123.671 12.52 122.855 13.384C122.063 14.224 121.667 15.244 121.667 16.444V28H118.427V14.284L118.139 9.28L120.767 8.92L121.163 12.556H121.307C121.715 11.38 122.327 10.444 123.143 9.748C123.983 9.028 124.967 8.668 126.095 8.668ZM139.711 8.668C141.487 8.668 142.903 9.184 143.959 10.216C145.015 11.224 145.543 12.832 145.543 15.04V28H142.303V15.256C142.303 12.784 141.067 11.548 138.595 11.548C137.875 11.548 137.167 11.728 136.471 12.088C135.775 12.424 135.223 12.82 134.815 13.276V28H131.575V14.284L131.287 9.28L133.915 8.92L134.383 11.044H134.527C134.959 10.492 135.607 9.964 136.471 9.46C137.359 8.932 138.439 8.668 139.711 8.668ZM157.926 8.668C159.99 8.668 161.514 9.292 162.498 10.54C163.314 11.548 163.818 13.24 164.01 15.616C164.082 16.552 164.118 17.716 164.118 19.108L162.642 19.324H153.318C153.318 22.348 154.122 24.256 155.73 25.048C156.402 25.384 157.326 25.552 158.502 25.552C159.678 25.552 161.034 25.168 162.57 24.4L163.578 26.632C161.586 27.832 159.582 28.432 157.566 28.432C152.43 28.432 149.862 25.192 149.862 18.712C149.862 15.64 150.534 13.204 151.878 11.404C153.246 9.58 155.262 8.668 157.926 8.668ZM160.662 16.768C160.662 14.848 160.47 13.504 160.086 12.736C159.702 11.944 158.814 11.548 157.422 11.548C156.054 11.548 155.082 12.016 154.506 12.952C153.93 13.864 153.57 15.136 153.426 16.768H160.662ZM171.442 22.24C171.442 23.416 171.538 24.316 171.73 24.94C171.922 25.54 172.354 26.188 173.026 26.884L170.614 28.792C169.63 27.76 168.982 26.884 168.67 26.164C168.358 25.444 168.202 24.22 168.202 22.492V1.18L171.442 0.819998V22.24ZM180.518 28H177.278V9.28L180.518 8.92V28ZM178.754 7.876C177.29 7.876 176.558 7.06 176.558 5.428C176.558 4.828 176.75 4.312 177.134 3.88C177.542 3.448 178.166 3.232 179.006 3.232C180.47 3.232 181.202 4.048 181.202 5.68C181.202 6.28 180.998 6.796 180.59 7.228C180.206 7.66 179.594 7.876 178.754 7.876ZM184.838 14.104C184.838 12.448 185.414 11.128 186.566 10.144C187.742 9.16 189.254 8.668 191.102 8.668C192.95 8.668 194.39 9.124 195.422 10.036C196.454 10.924 197.042 12.124 197.186 13.636L193.838 14.32C193.79 13.432 193.502 12.736 192.974 12.232C192.446 11.728 191.762 11.476 190.922 11.476C190.082 11.476 189.434 11.68 188.978 12.088C188.522 12.472 188.294 12.952 188.294 13.528C188.294 14.104 188.39 14.572 188.582 14.932C188.774 15.292 189.086 15.616 189.518 15.904C190.094 16.312 190.898 16.732 191.93 17.164C192.962 17.572 193.718 17.908 194.198 18.172C194.678 18.412 195.23 18.76 195.854 19.216C197.03 20.056 197.618 21.268 197.618 22.852C197.618 24.412 196.994 25.732 195.746 26.812C194.498 27.892 192.854 28.432 190.814 28.432C188.774 28.432 186.746 27.784 184.73 26.488L185.99 24.112C188.246 25.072 189.986 25.552 191.21 25.552C193.178 25.552 194.162 24.784 194.162 23.248C194.162 22.552 193.85 21.976 193.226 21.52C192.626 21.04 191.81 20.584 190.778 20.152C189.746 19.696 188.978 19.348 188.474 19.108C187.994 18.844 187.43 18.472 186.782 17.992C185.486 17.032 184.838 15.736 184.838 14.104Z" fill="white"/>
</svg>
