<svg width="22" height="22" viewBox="0 0 22 22" fill="none" xmlns="http://www.w3.org/2000/svg">
<path d="M14.4 7.3999C15.8322 7.3999 17.2057 7.96883 18.2184 8.98153C19.2311 9.99422 19.8 11.3677 19.8 12.7999V19.0999H16.2V12.7999C16.2 12.3225 16.0104 11.8647 15.6728 11.5271C15.3352 11.1895 14.8774 10.9999 14.4 10.9999C13.9226 10.9999 13.4648 11.1895 13.1272 11.5271C12.7896 11.8647 12.6 12.3225 12.6 12.7999V19.0999H9V12.7999C9 11.3677 9.56893 9.99422 10.5816 8.98153C11.5943 7.96883 12.9678 7.3999 14.4 7.3999V7.3999Z" stroke="black" stroke-linecap="round" stroke-linejoin="round"/>
<path d="M5.4 8.30005H1.8V19.1H5.4V8.30005Z" stroke="black" stroke-linecap="round" stroke-linejoin="round"/>
<path d="M3.6 5.6C4.59412 5.6 5.4 4.79411 5.4 3.8C5.4 2.80589 4.59412 2 3.6 2C2.60589 2 1.8 2.80589 1.8 3.8C1.8 4.79411 2.60589 5.6 3.6 5.6Z" stroke="black" stroke-linecap="round" stroke-linejoin="round"/>
</svg>
