<svg width="41" height="41" viewBox="0 0 41 41" fill="none" xmlns="http://www.w3.org/2000/svg">
<g clip-path="url(#clip0_27_72)">
<path d="M21.1406 34.5938H7.63944C7.4769 34.5959 7.31557 34.5655 7.16498 34.5043C7.01438 34.4431 6.87758 34.3523 6.76263 34.2374C6.64769 34.1224 6.55693 33.9856 6.49572 33.835C6.43451 33.6844 6.40408 33.5231 6.40623 33.3605V19.8594C6.40623 15.9516 7.9586 12.2038 10.7218 9.4406C13.4851 6.67737 17.2328 5.125 21.1406 5.125V5.125C23.0756 5.125 24.9916 5.50612 26.7792 6.24659C28.5669 6.98706 30.1912 8.07239 31.5594 9.4406C32.9276 10.8088 34.0129 12.4331 34.7534 14.2208C35.4939 16.0084 35.875 17.9244 35.875 19.8594V19.8594C35.875 21.7943 35.4939 23.7103 34.7534 25.498C34.0129 27.2856 32.9276 28.9099 31.5594 30.2782C30.1912 31.6464 28.5669 32.7317 26.7792 33.4722C24.9916 34.2126 23.0756 34.5938 21.1406 34.5938V34.5938Z" stroke="white" stroke-width="1.5" stroke-linecap="round" stroke-linejoin="round"/>
<path d="M16.0156 17.9375H25.625" stroke="white" stroke-width="1.5" stroke-linecap="round" stroke-linejoin="round"/>
<path d="M16.0156 23.0625H25.625" stroke="white" stroke-width="1.5" stroke-linecap="round" stroke-linejoin="round"/>
</g>
<defs>
<clipPath id="clip0_27_72">
<rect width="41" height="41" fill="white"/>
</clipPath>
</defs>
</svg>
